<?xml version="1.0" encoding="UTF-8" standalone="no"?>
<!DOCTYPE svg PUBLIC "-//W3C//DTD SVG 1.1//EN" "http://www.w3.org/Graphics/SVG/1.1/DTD/svg11.dtd">
<svg width="100%" height="100%" viewBox="0 0 800 471" version="1.1" xmlns="http://www.w3.org/2000/svg" xmlns:xlink="http://www.w3.org/1999/xlink" xml:space="preserve" xmlns:serif="http://www.serif.com/" style="fill-rule:evenodd;clip-rule:evenodd;stroke-linejoin:round;stroke-miterlimit:2;">
    <g transform="matrix(1.48346,0,0,1.48346,-181.878,-135.768)">
        <g id="Layer1">
            <g transform="matrix(1.05402,0,0,1.06785,-49.4698,-41.0494)">
                <ellipse cx="485.898" cy="237.961" rx="80.564" ry="77.672" style="fill:rgb(252,180,51);"/>
            </g>
            <g transform="matrix(1.08465,0,0,1.08465,64.0406,-54.1557)">
                <circle cx="351.485" cy="257.239" r="65.589" style="fill:rgb(249,104,82);"/>
            </g>
        </g>
        <g id="Layer2">
            <g transform="matrix(1,0,0,1,-0.254615,-1.88091)">
                <path d="M127.487,297.742C127.162,297.962 161.842,305.842 185.746,289.237C242.96,249.492 272.357,107.752 359.667,107.752C455.243,107.752 451.333,256.196 524.566,258.593C549.93,259.423 576.908,244.051 593.361,244.051C625.638,244.051 644.156,260.689 657.515,277.362C576.522,255.127 543.58,396.557 462.315,396.557C385.848,396.557 346.738,286.081 299.163,286.081C258.428,286.081 237.474,332.765 192.33,332.765C147.186,332.765 128.09,297.334 127.487,297.742Z" style="fill:rgb(179,154,246);"/>
            </g>
            <g transform="matrix(1,0,0,1,-0.248189,-1.88358)">
                <path d="M232.121,232.314C265.876,177.066 298.611,107.752 359.667,107.752C455.243,107.752 451.333,256.196 524.566,258.593C540.624,259.118 557.329,253.15 571.605,248.707C572.614,248.588 542.362,272.865 517.851,272.865C434.282,272.865 437.719,163.207 345.529,162.953C278.449,162.769 232.385,232.862 232.126,232.373L232.121,232.314Z" style="fill:rgb(115,249,185);"/>
            </g>
            <g transform="matrix(1,0,0,1,-0.253814,-1.88082)">
                <path d="M132.978,298.821C143.656,300.362 167.754,301.736 185.746,289.237C202.951,277.286 217.64,256.112 232.121,232.314L232.126,232.373C232.385,232.862 278.449,162.769 345.529,162.953C437.719,163.207 434.282,272.865 517.851,272.865C542.362,272.865 572.614,248.588 571.605,248.707C579.871,246.121 587.324,244.051 593.361,244.051C602.508,244.051 610.551,245.388 617.671,247.724L611.995,247.915C550.667,248.724 545.166,319.325 479.569,319.325C413.973,319.325 393.969,172.591 324.634,172.591C255.299,172.591 239.076,307.748 164.075,307.748C151.449,307.748 140.125,302.728 132.978,298.821Z" style="fill:rgb(85,226,177);"/>
            </g>
            <g transform="matrix(1,0,0,1,-0.181538,-1.844)">
                <path d="M226.069,323.464C238.806,310.224 275.018,253.576 312.808,258.119C350.73,262.679 369.584,333.407 394.631,366.178C357.855,333.478 330.325,286.081 299.163,286.081C270.058,286.081 251.051,309.914 226.069,323.464Z" style="fill:rgb(249,104,82);"/>
            </g>
            <g transform="matrix(1,0,0,1,-0.254615,-1.88091)">
                <path d="M654.938,274.267L657.515,277.362C609.713,264.239 578.649,308.127 544.478,346.256C542.587,347.725 521.98,356.321 500.411,356.321C425.343,356.321 400.551,234.357 319.8,219.892C278.512,212.495 224.249,271.669 224.036,272.197L224.016,272.182C255.987,232.145 278.609,172.591 324.634,172.591C393.969,172.591 413.973,319.325 479.569,319.325C490.53,319.325 499.814,317.353 507.952,314.027L507.927,314.079C507.329,313.694 536.719,316.244 579.688,285.729C617.828,258.642 649.944,272.194 654.938,274.267Z" style="fill:rgb(114,149,250);"/>
            </g>
            <g transform="matrix(1,0,0,1,-0.254459,-1.88083)">
                <path d="M507.952,314.027C548.563,297.679 560.915,248.589 611.995,247.915L617.671,247.724C634.151,252.984 645.774,263.387 654.938,274.267C649.944,272.194 617.828,258.642 579.688,285.729C536.719,316.244 507.329,313.694 507.927,314.079L507.952,314.027Z" style="fill:rgb(121,199,248);"/>
            </g>
        </g>
    </g>
</svg>
